{
    "asset" : {
        "generator" : "Khronos glTF Blender I/O v3.2.43",
        "version" : "2.0"
    },
    "scene" : 0,
    "scenes" : [
        {
            "name" : "Scene",
            "nodes" : [
                0
            ]
        }
    ],
    "nodes" : [
        {
            "mesh" : 0,
            "name" : "rear_carriage",
            "rotation" : [
                0.7071068286895752,
                0,
                0,
                0.7071067094802856
            ]
        }
    ],
    "meshes" : [
        {
            "name" : "rear_carriage",
            "primitives" : [
                {
                    "attributes" : {
                        "POSITION" : 0,
                        "NORMAL" : 1,
                        "TEXCOORD_0" : 2
                    },
                    "indices" : 3
                }
            ]
        }
    ],
    "accessors" : [
        {
            "bufferView" : 0,
            "componentType" : 5126,
            "count" : 1930,
            "max" : [
                -1.018103003501892,
                9.743391036987305,
                1.549994945526123
            ],
            "min" : [
                -20.62986183166504,
                -3.934706926345825,
                -5
            ],
            "type" : "VEC3"
        },
        {
            "bufferView" : 1,
            "componentType" : 5126,
            "count" : 1930,
            "type" : "VEC3"
        },
        {
            "bufferView" : 2,
            "componentType" : 5126,
            "count" : 1930,
            "type" : "VEC2"
        },
        {
            "bufferView" : 3,
            "componentType" : 5123,
            "count" : 5886,
            "type" : "SCALAR"
        }
    ],
    "bufferViews" : [
        {
            "buffer" : 0,
            "byteLength" : 23160,
            "byteOffset" : 0
        },
        {
            "buffer" : 0,
            "byteLength" : 23160,
            "byteOffset" : 23160
        },
        {
            "buffer" : 0,
            "byteLength" : 15440,
            "byteOffset" : 46320
        },
        {
            "buffer" : 0,
            "byteLength" : 11772,
            "byteOffset" : 61760
        }
    ],
    "buffers" : [
        {
            "byteLength" : 73532,
            "uri" : "data:application/octet-stream;base64,"
        }
    ]
}
